<?xml version="1.0" encoding="utf-8"?>
<!-- Generator: Adobe Illustrator 25.2.1, SVG Export Plug-In . SVG Version: 6.00 Build 0)  -->
<svg version="1.1" id="Layer_1" xmlns="http://www.w3.org/2000/svg" xmlns:xlink="http://www.w3.org/1999/xlink" x="0px" y="0px"
	 viewBox="0 0 197.5 31.1" style="enable-background:new 0 0 197.5 31.1;" xml:space="preserve">
<style type="text/css">
	.st0{clip-path:url(#SVGID_2_);}
	.st1{clip-path:url(#SVGID_4_);fill:#F17920;}
	.st2{clip-path:url(#SVGID_4_);fill:#595959;}
</style>
<g id="Artwork_27_1_">
	<g>
		<defs>
			<rect id="SVGID_1_" x="1.3" y="0.8" width="195" height="29.7"/>
		</defs>
		<clipPath id="SVGID_2_">
			<use xlink:href="#SVGID_1_"  style="overflow:visible;"/>
		</clipPath>
		<g class="st0">
			<defs>
				<rect id="SVGID_3_" x="1.3" y="0.8" width="195" height="29.7"/>
			</defs>
			<clipPath id="SVGID_4_">
				<use xlink:href="#SVGID_3_"  style="overflow:visible;"/>
			</clipPath>
			<path class="st1" d="M17.8,24.1l-1.9,4.2h1.3l0.8,1.8c0.2,0.4,0.5,0.3,0.5,0.3c0.5-0.1,1.1-0.2,1.5-0.3c0.1,0,0.3-0.1,0.4-0.1
				L17.8,24.1z"/>
			<path class="st1" d="M22.1,21.9l0.7,4.6l1.1-0.7l1.6,1.1c0.4,0.2,0.6,0,0.6,0c0.4-0.4,0.8-0.8,1.1-1.1c0.1-0.1,0.2-0.2,0.3-0.3
				L22.1,21.9z"/>
			<path class="st1" d="M24.5,17.7l3.1,3.5l0.5-1.2l1.9,0c0.4,0,0.5-0.3,0.5-0.3c0.2-0.5,0.3-1.1,0.4-1.5c0-0.1,0-0.3,0.1-0.4
				L24.5,17.7z"/>
			<path class="st1" d="M24.3,12.9l4.5,1.3l-0.2-1.3l1.7-1c0.4-0.2,0.3-0.5,0.3-0.5c-0.2-0.5-0.4-1.1-0.5-1.5
				c-0.1-0.1-0.1-0.2-0.2-0.4L24.3,12.9z"/>
			<path class="st1" d="M21.5,9l4.4-1.3l-0.9-1l0.8-1.8c0.2-0.4-0.1-0.6-0.1-0.6c-0.4-0.3-0.9-0.7-1.3-1c-0.1-0.1-0.2-0.1-0.3-0.2
				L21.5,9z"/>
			<path class="st1" d="M17.1,7.2l3-3.5l-1.3-0.4l-0.3-1.9c-0.1-0.4-0.4-0.5-0.4-0.5c-0.5-0.1-1.2-0.1-1.6-0.1h-0.4L17.1,7.2z"/>
			<path class="st1" d="M12.3,8.1l0.6-4.6l-1.3,0.4l-1.3-1.5c-0.3-0.3-0.6-0.2-0.6-0.2c-0.5,0.2-1,0.5-1.4,0.7
				C8.4,3,8.2,3.1,8.1,3.2L12.3,8.1z"/>
			<path class="st1" d="M8.8,11.4l-2-4.2L6,8.2L4.2,7.6C3.7,7.5,3.6,7.8,3.6,7.8C3.3,8.3,3,8.8,2.8,9.2C2.8,9.3,2.7,9.4,2.7,9.5
				L8.8,11.4z"/>
			<path class="st1" d="M7.7,16.1l-3.9-2.5l-0.2,1.3l-1.9,0.5c-0.4,0.1-0.4,0.5-0.4,0.5c0,0.5,0.1,1.2,0.1,1.6
				c0,0.1,0.1,0.3,0.1,0.4L7.7,16.1z"/>
			<path class="st1" d="M9.3,20.6l-4.6,0.1l0.5,1.2l-1.3,1.4c-0.3,0.3-0.1,0.6-0.1,0.6c0.3,0.4,0.7,1,1,1.3C4.9,25.3,5,25.4,5,25.5
				L9.3,20.6z"/>
			<path class="st1" d="M13,23.6l-3.9,2.5l1.1,0.7L10,28.8c-0.1,0.4,0.2,0.5,0.2,0.5c0.5,0.2,1.1,0.4,1.5,0.6c0.1,0,0.3,0.1,0.4,0.1
				L13,23.6z"/>
			<path class="st1" d="M12.4,30.1c-0.1,0-0.3-0.1-0.4-0.1l4.1-9.1c0.1-0.1,0.3-0.1,0.3,0l1,2.3c0,0.1,0,0.1,0,0.2l-3.1,6.8
				c-0.2,0.4-0.5,0.3-0.5,0.3C13.3,30.3,12.8,30.2,12.4,30.1"/>
			<path class="st1" d="M20.8,29.9c-0.1,0-0.3,0.1-0.4,0.1l-1.5-9.9c0-0.2,0.1-0.3,0.3-0.2l2.1,1.3c0.1,0,0.1,0.1,0.1,0.1l1.1,7.4
				c0.1,0.4-0.3,0.5-0.3,0.5C21.7,29.6,21.2,29.7,20.8,29.9"/>
			<path class="st1" d="M27.7,25.2c-0.1,0.1-0.2,0.2-0.3,0.3L20.9,18c-0.1-0.1,0-0.3,0.1-0.3l2.5,0c0.1,0,0.1,0,0.1,0.1l4.9,5.6
				c0.3,0.3,0.1,0.6,0.1,0.6C28.3,24.4,28,24.8,27.7,25.2"/>
			<path class="st1" d="M31,17.4c0,0.1-0.1,0.3-0.1,0.4l-9.6-2.8c-0.2-0.1-0.2-0.2-0.1-0.3l2.1-1.3c0.1,0,0.1,0,0.1,0l7.2,2.1
				c0.4,0.1,0.4,0.5,0.4,0.5C31.1,16.5,31.1,17,31,17.4"/>
			<path class="st1" d="M29.6,9.2c0.1,0.1,0.1,0.3,0.2,0.4l-9.6,2.9c-0.2,0.1-0.3-0.1-0.2-0.2l1-2.2c0-0.1,0.1-0.1,0.1-0.1l7.2-2.1
				c0.4-0.1,0.6,0.2,0.6,0.2C29.2,8.3,29.4,8.7,29.6,9.2"/>
			<path class="st1" d="M24,2.9c0.1,0.1,0.2,0.2,0.4,0.2l-6.5,7.6c-0.1,0.1-0.3,0.1-0.3-0.1l-0.3-2.5c0-0.1,0-0.1,0.1-0.1l4.9-5.7
				c0.3-0.3,0.6-0.2,0.6-0.2C23.1,2.4,23.6,2.7,24,2.9"/>
			<path class="st1" d="M15.8,0.8h0.4l-1.4,9.9c0,0.2-0.2,0.2-0.3,0.1L13,8.9c0,0-0.1-0.1-0.1-0.1l1-7.4C14,1,14.4,0.9,14.4,0.9
				C14.9,0.8,15.4,0.8,15.8,0.8"/>
			<path class="st1" d="M7.8,3.4c0.1-0.1,0.3-0.2,0.4-0.2l4.2,9.1c0.1,0.1-0.1,0.3-0.2,0.2l-2.4-0.7c-0.1,0-0.1-0.1-0.1-0.1L6.6,4.8
				C6.4,4.4,6.7,4.2,6.7,4.2C7,3.9,7.5,3.6,7.8,3.4"/>
			<path class="st1" d="M2.5,9.9c0.1-0.1,0.1-0.3,0.2-0.4l8.4,5.4c0.1,0.1,0.1,0.3-0.1,0.3l-2.4,0.7c-0.1,0-0.1,0-0.1,0l-6.3-4
				C1.9,11.5,2,11.2,2,11.2C2.1,10.8,2.3,10.3,2.5,9.9"/>
			<path class="st1" d="M1.5,18.2c0-0.1-0.1-0.3-0.1-0.4l10-0.1c0.2,0,0.2,0.2,0.1,0.3L10,19.8c0,0-0.1,0.1-0.1,0.1l-7.5,0.1
				c-0.4,0-0.5-0.3-0.5-0.3C1.7,19.1,1.6,18.6,1.5,18.2"/>
			<path class="st1" d="M5.2,25.7c-0.1-0.1-0.2-0.2-0.3-0.3l8.4-5.4c0.1-0.1,0.3,0,0.3,0.2l-0.4,2.5c0,0.1,0,0.1-0.1,0.1l-6.3,4.1
				c-0.4,0.2-0.6,0-0.6,0C5.9,26.4,5.5,26.1,5.2,25.7"/>
			<path class="st2" d="M37.8,22l5.1-13.1C43,8.3,43.4,8,44,8h1.5c0.6,0,1,0.3,1.2,0.8L51.9,22c0.3,0.7-0.1,1.2-0.8,1.2h-1.4
				c-0.6,0-1-0.3-1.2-0.8l-0.7-2h-5.8l-0.7,2c-0.2,0.6-0.6,0.9-1.2,0.9h-1.4C37.8,23.2,37.5,22.7,37.8,22 M47,17.7l-2.2-6.1
				l-2.3,6.1H47z"/>
			<path class="st2" d="M54,22.1l1.2-13c0.1-0.6,0.4-1,1.1-1h1.5c0.6,0,1,0.3,1.2,0.8l3.8,9.4l3.9-9.4C67,8.3,67.4,8,68,8h1.6
				c0.6,0,1,0.3,1.1,1l1.2,13c0.1,0.7-0.3,1.1-1,1.1h-1.3c-0.7,0-1-0.3-1.1-1l-0.7-8.3l-3.3,8.3c-0.2,0.6-0.6,0.8-1.2,0.8h-0.6
				c-0.6,0-1-0.3-1.2-0.8l-3.3-8.3l-0.7,8.3c-0.1,0.6-0.4,1-1.1,1H55C54.3,23.2,53.9,22.8,54,22.1"/>
			<path class="st2" d="M86.8,18.9c0,2.6-2.1,4.3-5.4,4.3h-5.6c-0.7,0-1.1-0.4-1.1-1V9.1c0-0.7,0.4-1,1.1-1h5c3.1,0,5.3,1.5,5.3,4.2
				c0,1.3-0.7,2.6-2.4,3.1C85.7,15.6,86.8,17.4,86.8,18.9 M78.2,10.8v3.7H80c1.9,0,2.7-0.9,2.7-1.9c0-1.1-1-1.8-2.2-1.8L78.2,10.8
				L78.2,10.8z M83.4,18.6c0-1-0.9-2-2.9-2h-2.4v3.7h3.1C82.6,20.4,83.4,19.6,83.4,18.6"/>
			<path class="st2" d="M89.6,22.1V9.1c0-0.7,0.4-1,1.1-1H92c0.7,0,1,0.4,1,1v13.1c0,0.7-0.4,1-1,1h-1.3
				C90,23.2,89.6,22.8,89.6,22.1"/>
			<path class="st2" d="M108,9.1v0.8c0,0.7-0.4,1-1.1,1h-3.5v11.2c0,0.7-0.4,1-1,1h-1.3c-0.7,0-1-0.4-1-1V10.9h-3.5
				c-0.7,0-1-0.4-1-1V9.1c0-0.7,0.4-1,1-1H107C107.6,8,108,8.4,108,9.1"/>
			<path class="st2" d="M112.8,9.4V15h6.2c0.4,0,0.6,0.2,0.6,0.6v0.3c0,0.4-0.2,0.6-0.6,0.6h-6.2v5.3h7.1c0.4,0,0.6,0.2,0.6,0.6v0.3
				c0,0.4-0.2,0.6-0.6,0.6h-8.3c-0.4,0-0.6-0.2-0.6-0.6v-14c0-0.4,0.2-0.6,0.6-0.6h8.3c0.4,0,0.6,0.2,0.6,0.6v0.3
				c0,0.3-0.2,0.6-0.6,0.6H112.8z"/>
			<path class="st2" d="M124.3,22.6v-14c0-0.4,0.2-0.6,0.6-0.6h0.3c0.3,0,0.5,0.1,0.7,0.3l8.6,11.7V8.6c0-0.4,0.2-0.6,0.6-0.6h0.6
				c0.3,0,0.6,0.2,0.6,0.6v14c0,0.4-0.2,0.6-0.6,0.6h-0.3c-0.3,0-0.5-0.1-0.7-0.3L126,11.1v11.5c0,0.4-0.2,0.6-0.6,0.6h-0.5
				C124.5,23.2,124.3,23,124.3,22.6"/>
			<path class="st2" d="M141.5,9.4V15h6.2c0.4,0,0.6,0.2,0.6,0.6v0.3c0,0.4-0.2,0.6-0.6,0.6h-6.2v5.3h7.1c0.4,0,0.6,0.2,0.6,0.6v0.3
				c0,0.4-0.2,0.6-0.6,0.6h-8.3c-0.4,0-0.6-0.2-0.6-0.6v-14c0-0.4,0.2-0.6,0.6-0.6h8.3c0.4,0,0.6,0.2,0.6,0.6v0.3
				c0,0.3-0.2,0.6-0.6,0.6H141.5z"/>
			<path class="st2" d="M165.4,15.6c0-4.4,3.6-7.8,7.8-7.8c1.9,0,3.5,0.3,5,1.2c0.3,0.2,0.4,0.5,0.2,0.8l-0.2,0.3
				c-0.2,0.3-0.5,0.4-0.8,0.2c-1.7-1-2.9-1-4.3-1c-3.3,0-6.1,2.7-6.1,6.3c0,3.2,2.3,6.3,6.4,6.3c1.4,0,2.7-0.3,3.9-1.2v-3.5h-3.8
				c-0.4,0-0.6-0.2-0.6-0.6v-0.3c0-0.3,0.2-0.6,0.6-0.6h4.7c0.4,0,0.6,0.2,0.6,0.6v4.6c0,0.3-0.1,0.6-0.5,0.9
				c-1.7,1.3-3.7,1.6-5,1.6C168.7,23.4,165.4,19.9,165.4,15.6"/>
			<path class="st2" d="M186,22.6v-5.7l-5.4-8.2C180.4,8.3,180.6,8,181,8h0.7c0.3,0,0.5,0.1,0.7,0.4l4.4,7l4.4-7
				c0.2-0.3,0.4-0.4,0.7-0.4h0.7c0.5,0,0.6,0.3,0.4,0.7l-5.4,8.2v5.7c0,0.4-0.2,0.6-0.6,0.6h-0.6C186.3,23.2,186,23,186,22.6"/>
			<path class="st2" d="M163.2,22.3l-2.9-5.3c1.8-0.6,2.9-2.3,2.9-4.3c0-2.5-1.6-4.7-4.5-4.7h-5.6c-0.4,0-0.6,0.2-0.6,0.6v14
				c0,0.4,0.2,0.6,0.6,0.6h0.6c0.3,0,0.6-0.2,0.6-0.6v-5.3h3.7l0.7,0l3.2,5.8c0.2,0.3,0.5,0.4,0.9,0.2l0.3-0.1
				C163.2,22.9,163.4,22.6,163.2,22.3 M154.2,15.9V9.4h4.2c1.9,0,3,1.4,3,3.3c0,1.8-1.1,3.2-3,3.2H154.2z"/>
			<path class="st2" d="M195.1,7.9c0.7,0,1.2,0.5,1.2,1.2c0,0.7-0.5,1.2-1.2,1.2c-0.7,0-1.2-0.5-1.2-1.2
				C193.9,8.5,194.4,7.9,195.1,7.9 M195.1,10.2c0.5,0,1-0.5,1-1s-0.4-1-1-1c-0.5,0-1,0.5-1,1C194.1,9.7,194.6,10.2,195.1,10.2
				 M195.4,9.3c0.1,0.2,0.2,0.3,0.3,0.5h-0.3l-0.2-0.4h-0.1v0.4h-0.3V8.6h0.5c0.3,0,0.4,0.2,0.4,0.4C195.6,9.2,195.5,9.3,195.4,9.3
				 M195.2,9.1c0.1,0,0.1-0.1,0.1-0.2c0-0.1-0.1-0.2-0.1-0.2H195v0.3H195.2z"/>
		</g>
	</g>
</g>
</svg>
